# xmcd
#
# Track frame offsets:
#	150
#	10849
#	22130
#	34772
#	47140
#	59739
#	72379
#	81862
#	92983
#	106664
#	117164
#	127808
#	141653
#	150717
#	162546
#	176949
#	185763
#	196819
#	207121
#	218366
#	229147
#	240514
#	251393
#	263006
#	271016
#
# Disc length: 3774 seconds
#
# Revision: 1
# Processed by: cddbd v1.5.2PL0 Copyright (c) Steve Scherf et al.
# Submitted via: audiograbber 1.83.01
#
DISCID=640ebc19
DTITLE=Various Artist - Hixville (We'll Have a Time, Yes-Siree!)
DYEAR=1900
DGENRE=Country
TTITLE0=Johnny Sutherland - We'll Have a Time Yes-Siree!
TTITLE1=Carl Tanner - Sweet Talking Baby
TTITLE2=Leo Ogletree - Crooked Dice
TTITLE3=Wanda Ballman - Think It Over (Before You Cast Your Stone)
TTITLE4=Ray Mayo - Mended Heart
TTITLE5=Billie and Gordon Hamrick - When I Feel the Spirit (Brother) I'm Gonna Sh
TTITLE5=out
TTITLE6=Buddy Livingston - Write Me Right Away
TTITLE7=Jim Cunningham - Take Time To Cry
TTITLE8=Al Meyer and his Pals - You're the Same Old Moon
TTITLE9=Al Warwick - You Are the Only One
TTITLE10=Ray Mayo - Who Winds Your Clock
TTITLE11=Billie and Gordon Hamrick - He's Gonna Take His Children Out
TTITLE12=Johnny Sutherland - I'm In Love
TTITLE13=Leo Ogletree - You Done Got Me
TTITLE14=Joe Bryant - Pulpwood Blues
TTITLE15=Jim Cunningham - A Pain a Pill Won't Reach
TTITLE16=Joe Gibson - Puttin' On the Dog
TTITLE17=Don Payne - Kickaroo
TTITLE18=Otis Parker - They Don't Have to Operate (Just Pull the Zipper)
TTITLE19=Joe Gibson - Oh Brother
TTITLE20=Red Mansel - I've Crossed You Off My List
TTITLE21=Joe Bryant - A Man Ain't Nothin' But a Woman's Slave
TTITLE22=Jerry Hopkins - Cuddle Up to Me
TTITLE23=Hoyt Scoggins - The Pathway is Not Crowded
TTITLE24=Buddy Livingston - Back When She Was Young
EXTD=
EXTT0=
EXTT1=
EXTT2=
EXTT3=
EXTT4=
EXTT5=
EXTT6=
EXTT7=
EXTT8=
EXTT9=
EXTT10=
EXTT11=
EXTT12=
EXTT13=
EXTT14=
EXTT15=
EXTT16=
EXTT17=
EXTT18=
EXTT19=
EXTT20=
EXTT21=
EXTT22=
EXTT23=
EXTT24=
PLAYORDER=
